<?xml version="1.0" standalone="no"?>
<!DOCTYPE svg PUBLIC "-//W3C//DTD SVG 20010904//EN"
 "http://www.w3.org/TR/2001/REC-SVG-20010904/DTD/svg10.dtd">
<svg version="1.0" xmlns="http://www.w3.org/2000/svg"
 width="1024.000000pt" height="1024.000000pt" viewBox="0 0 1024.000000 1024.000000"
 preserveAspectRatio="xMidYMid meet">
<metadata>
Created by potrace 1.14, written by Peter Selinger 2001-2017
</metadata>
<g transform="translate(0.000000,1024.000000) scale(0.100000,-0.100000)"
fill="#000000" stroke="none">
<path d="M0 5120 l0 -5120 5120 0 5120 0 0 5120 0 5120 -5120 0 -5120 0 0
-5120z m5300 4251 c36 -3 -65 -6 -225 -6 -159 0 -267 3 -240 6 67 8 384 8 465
0z m-572 -18 c-10 -2 -26 -2 -35 0 -10 3 -2 5 17 5 19 0 27 -2 18 -5z m715 0
c-13 -2 -33 -2 -45 0 -13 2 -3 4 22 4 25 0 35 -2 23 -4z m-800 -10 c-7 -2 -21
-2 -30 0 -10 3 -4 5 12 5 17 0 24 -2 18 -5z m885 0 c-10 -2 -28 -2 -40 0 -13
2 -5 4 17 4 22 1 32 -1 23 -4z m-955 -10 c-7 -2 -21 -2 -30 0 -10 3 -4 5 12 5
17 0 24 -2 18 -5z m1020 0 c-7 -2 -21 -2 -30 0 -10 3 -4 5 12 5 17 0 24 -2 18
-5z m-1080 -10 c-7 -2 -21 -2 -30 0 -10 3 -4 5 12 5 17 0 24 -2 18 -5z m1140
0 c-7 -2 -21 -2 -30 0 -10 3 -4 5 12 5 17 0 24 -2 18 -5z m-1200 -10 c-7 -2
-19 -2 -25 0 -7 3 -2 5 12 5 14 0 19 -2 13 -5z m1332 -13 c92 -23 62 -24 -40
0 -44 10 -69 18 -55 18 14 0 57 -8 95 -18z m-1382 3 c-7 -2 -19 -2 -25 0 -7 3
-2 5 12 5 14 0 19 -2 13 -5z m-50 -10 c-7 -2 -19 -2 -25 0 -7 3 -2 5 12 5 14
0 19 -2 13 -5z m-46 -9 c-3 -3 -12 -4 -19 -1 -8 3 -5 6 6 6 11 1 17 -2 13 -5z
m-40 -10 c-3 -3 -12 -4 -19 -1 -8 3 -5 6 6 6 11 1 17 -2 13 -5z m1648 -4 c25
-11 -1 -11 -35 0 -20 6 -21 8 -5 8 11 0 29 -3 40 -8z m-1688 -6 c-3 -3 -12 -4
-19 -1 -8 3 -5 6 6 6 11 1 17 -2 13 -5z m-40 -10 c-3 -3 -12 -4 -19 -1 -8 3
-5 6 6 6 11 1 17 -2 13 -5z m1953 -51 c852 -284 1560 -900 1965 -1713 103
-206 217 -506 239 -630 8 -50 1 -31 -39 105 -223 745 -725 1413 -1390 1849
-265 174 -481 278 -805 388 -96 32 -159 56 -140 52 19 -4 96 -27 170 -51z
m-2035 27 c-11 -5 -27 -9 -35 -9 -9 0 -8 4 5 9 11 5 27 9 35 9 9 0 8 -4 -5 -9z
m-185 -59 c-8 -5 -26 -11 -40 -15 -21 -5 -20 -3 5 9 32 15 60 20 35 6z m-71
-25 c-9 -8 -153 -65 -156 -62 -4 4 137 65 151 66 5 0 7 -2 5 -4z m1381 -46
c11 -6 50 -70 87 -143 l67 -132 8 40 c4 22 7 65 8 95 0 30 3 72 6 93 6 35 8
37 45 37 21 0 40 -3 42 -7 3 -5 -1 -91 -9 -193 -7 -102 -13 -198 -14 -213 0
-27 -1 -28 -47 -25 l-48 3 -71 132 c-39 73 -74 130 -77 126 -4 -3 -7 -25 -7
-48 0 -23 -3 -76 -6 -118 l-7 -77 -43 0 c-39 0 -44 3 -44 23 0 16 27 388 30
415 1 7 64 1 80 -8z m-303 -207 c56 -115 99 -211 96 -215 -2 -5 -24 -8 -49 -8
-43 0 -45 2 -66 45 l-22 45 -60 -1 c-96 -2 -109 -8 -124 -62 l-13 -47 -51 0
c-36 0 -49 4 -45 13 2 6 32 102 67 212 34 110 67 206 72 213 6 6 29 12 53 12
l42 0 100 -207z m-1402 104 c-643 -333 -1137 -826 -1479 -1477 -36 -69 -66
-121 -66 -117 0 15 108 219 175 332 138 228 293 426 493 628 272 275 525 462
867 639 83 43 155 78 160 78 6 0 -62 -38 -150 -83z m2248 36 c15 -3 27 -11 27
-17 0 -6 -16 -69 -35 -141 -40 -150 -42 -175 -16 -199 30 -27 92 -32 113 -9 9
10 34 82 56 161 22 79 42 145 45 148 3 3 24 0 47 -6 48 -13 49 0 -7 -195 -40
-142 -57 -174 -103 -198 -69 -36 -202 3 -248 73 -29 43 -26 79 24 263 18 70
34 130 34 133 0 4 8 3 18 -1 9 -3 29 -9 45 -12z m-1474 -60 c17 -60 13 -107
-10 -137 -19 -24 -23 -26 -36 -13 -12 11 -12 19 -4 35 17 32 14 51 -8 45 -14
-3 -20 2 -24 24 -3 15 -8 35 -12 44 -5 13 3 19 32 27 21 5 41 10 45 11 4 1 12
-16 17 -36z m-265 -122 c18 -12 46 -39 60 -62 88 -132 71 -257 -44 -326 -104
-63 -194 -52 -269 33 -147 168 -47 396 167 379 29 -2 67 -13 86 -24z m2323 -6
c47 -9 112 -61 130 -102 13 -32 12 -103 -2 -103 -3 0 -23 7 -45 16 -34 14 -40
21 -40 45 0 22 -8 34 -32 49 -41 25 -84 26 -92 3 -5 -13 14 -37 73 -93 93 -88
103 -115 73 -184 -26 -58 -61 -80 -123 -79 -62 1 -150 43 -180 85 -24 33 -36
114 -21 136 8 11 17 11 50 1 38 -11 41 -14 44 -53 2 -33 9 -44 37 -63 19 -13
43 -23 54 -23 23 0 57 27 57 46 0 7 -30 38 -66 70 -73 65 -94 97 -94 148 0 59
74 123 130 111 8 -2 29 -6 47 -10z m-2840 -166 c6 -6 9 -28 5 -51 -5 -38 -4
-40 16 -29 18 9 23 7 41 -23 12 -18 21 -36 21 -39 0 -6 -64 -47 -74 -47 -11 0
-56 99 -56 124 0 27 19 76 30 76 3 0 11 -5 17 -11z m3345 -115 c21 -15 38 -29
38 -32 0 -8 -103 -447 -105 -450 -2 -2 -22 9 -45 24 -35 23 -40 31 -35 52 20
80 21 76 -49 126 l-66 47 -44 -30 -43 -30 -34 25 c-19 14 -34 29 -34 34 0 8
360 257 374 259 3 1 22 -11 43 -25z m-1435 -153 c786 -118 1476 -619 1833
-1332 111 -220 188 -458 231 -710 19 -113 23 -172 23 -374 1 -153 -4 -275 -13
-337 l-13 -96 -72 -7 c-380 -36 -771 -208 -1126 -493 -117 -95 -456 -431 -576
-572 -140 -164 -367 -451 -509 -643 -71 -96 -133 -174 -137 -174 -6 2 -748
1142 -2150 3304 l-60 93 47 86 c149 272 371 538 616 735 376 304 837 492 1322
539 139 13 432 4 584 -19z m-2234 -127 c78 -42 171 -92 206 -112 l65 -35 -39
-33 -39 -32 -47 24 -48 24 -60 -51 c-34 -28 -61 -54 -61 -59 0 -4 7 -27 15
-51 l16 -44 -33 -27 c-18 -15 -36 -28 -39 -28 -9 0 -12 7 -89 237 l-68 202 36
30 c21 17 38 30 40 31 1 0 66 -34 145 -76z m4027 -25 c0 -11 -11 -72 -25 -137
-14 -64 -27 -128 -30 -142 -4 -19 19 1 90 75 l94 100 33 -32 32 -32 -55 -58
c-30 -32 -97 -104 -150 -160 l-95 -103 -34 35 -34 35 23 118 c38 198 44 189
-57 83 l-89 -94 -33 31 -34 30 109 116 c61 65 127 137 148 161 l39 45 34 -26
c19 -15 34 -35 34 -45z m-4317 -350 c89 -72 162 -134 162 -138 0 -3 -12 -22
-27 -41 l-26 -34 -71 57 c-38 31 -72 57 -75 57 -9 0 -97 -112 -94 -120 2 -4
31 -30 66 -59 34 -28 62 -57 62 -64 0 -7 -12 -25 -26 -40 l-25 -29 -169 137
c-103 83 -167 142 -164 148 12 21 47 57 55 57 5 0 33 -20 63 -45 31 -25 60
-45 65 -45 7 0 51 50 93 106 6 8 -14 30 -57 64 l-65 52 26 34 c15 19 31 34 36
34 5 0 82 -59 171 -131z m4705 -71 c76 -107 82 -119 82 -168 0 -76 -65 -160
-159 -207 -51 -25 -141 -24 -178 3 -34 25 -166 195 -158 203 14 14 341 250
347 250 4 1 33 -36 66 -81z m-5110 -292 c3 -3 -2 -23 -9 -43 -12 -31 -21 -39
-44 -41 -17 -2 -36 -9 -44 -15 -20 -17 -42 -73 -35 -91 13 -33 48 -16 114 53
76 80 110 93 178 66 80 -32 103 -115 58 -210 -40 -87 -94 -122 -176 -115 -44
4 -49 11 -33 53 14 34 19 37 53 37 30 0 44 6 64 31 41 48 32 119 -15 119 -9 0
-38 -23 -65 -52 -89 -95 -140 -116 -204 -83 -61 32 -76 106 -36 190 38 81 91
119 155 110 18 -2 36 -6 39 -9z m5377 -136 c8 -16 15 -34 15 -40 0 -6 -34 -27
-75 -46 l-74 -36 35 -69 c39 -78 36 -78 126 -33 26 13 51 24 56 24 10 0 48
-78 41 -84 -9 -7 -378 -176 -387 -176 -11 0 -44 69 -37 79 2 5 38 24 80 42 41
19 75 37 75 42 0 12 -58 137 -64 137 -3 0 -39 -16 -82 -35 -42 -19 -80 -35
-84 -35 -11 0 -43 84 -33 87 4 2 89 41 188 88 99 46 186 85 192 85 7 0 19 -13
28 -30z m-5914 -67 c-11 -21 -20 -35 -21 -31 0 12 33 78 38 74 2 -2 -6 -21
-17 -43z m-48 -116 c-14 -37 -28 -65 -30 -63 -2 2 8 34 23 70 14 37 28 65 30
63 2 -2 -8 -33 -23 -70z m327 -167 c28 -55 53 -100 56 -100 3 0 68 16 146 35
77 20 143 34 146 31 9 -10 -21 -97 -37 -105 -9 -5 -60 -17 -113 -27 -54 -10
-98 -21 -98 -25 0 -5 8 -24 17 -43 14 -30 26 -39 80 -57 57 -19 63 -23 57 -42
-13 -44 -24 -67 -29 -67 -14 0 -391 132 -398 139 -7 7 10 91 18 91 1 0 28 -9
61 -21 124 -44 119 -51 52 73 -53 97 -59 113 -49 136 6 15 15 39 20 55 6 15
13 27 16 27 2 0 27 -45 55 -100z m-394 -16 c-14 -38 -25 -64 -25 -58 -1 15 40
136 45 131 2 -2 -7 -35 -20 -73z m-42 -138 c-3 -15 -8 -25 -11 -23 -2 3 -1 17
3 31 3 15 8 25 11 23 2 -3 1 -17 -3 -31z m-17 -58 c-3 -8 -6 -5 -6 6 -1 11 2
17 5 13 3 -3 4 -12 1 -19z m6108 -19 c116 -17 213 -34 217 -38 4 -4 10 -27 13
-51 l6 -45 -183 -125 c-101 -69 -188 -126 -194 -128 -6 -2 -15 19 -21 46 l-10
49 44 28 c29 18 42 33 39 44 -2 9 -10 41 -16 71 -16 70 -24 80 -70 80 -44 0
-55 11 -64 63 -6 31 -4 37 11 37 10 0 113 -14 228 -31z m-4958 -249 c88 -135
467 -715 843 -1290 665 -1016 955 -1461 1087 -1664 l65 -99 -89 7 c-199 16
-487 85 -678 161 -485 195 -903 542 -1182 982 -75 120 -194 366 -238 493 -44
127 -87 300 -112 447 -22 135 -25 560 -5 693 31 203 123 543 142 524 4 -5 79
-119 167 -254z m-1160 228 c-3 -8 -6 -5 -6 6 -1 11 2 17 5 13 3 -3 4 -12 1
-19z m6580 -10 c-3 -8 -6 -5 -6 6 -1 11 2 17 5 13 3 -3 4 -12 1 -19z m-6590
-30 c-3 -8 -6 -5 -6 6 -1 11 2 17 5 13 3 -3 4 -12 1 -19z m6600 -10 c-3 -8 -6
-5 -6 6 -1 11 2 17 5 13 3 -3 4 -12 1 -19z m-6610 -30 c-3 -8 -6 -5 -6 6 -1
11 2 17 5 13 3 -3 4 -12 1 -19z m6647 -138 c3 -25 -3 -7 -14 40 -10 47 -19 92
-18 100 1 22 26 -88 32 -140z m-6657 88 c-3 -7 -5 -2 -5 12 0 14 2 19 5 13 2
-7 2 -19 0 -25z m-10 -50 c-3 -7 -5 -2 -5 12 0 14 2 19 5 13 2 -7 2 -19 0 -25z
m493 -48 c112 -21 205 -41 207 -44 9 -9 -9 -86 -20 -86 -25 -1 -402 74 -411
81 -10 9 2 89 14 89 4 0 99 -18 210 -40z m-503 -2 c-3 -7 -5 -2 -5 12 0 14 2
19 5 13 2 -7 2 -19 0 -25z m-10 -60 c-3 -7 -5 -2 -5 12 0 14 2 19 5 13 2 -7 2
-19 0 -25z m6700 -15 c-3 -10 -5 -4 -5 12 0 17 2 24 5 18 2 -7 2 -21 0 -30z
m-6710 -50 c-3 -10 -5 -4 -5 12 0 17 2 24 5 18 2 -7 2 -21 0 -30z m6720 -30
c-3 -10 -5 -2 -5 17 0 19 2 27 5 18 2 -10 2 -26 0 -35z m-6730 -50 c-3 -10 -5
-2 -5 17 0 19 2 27 5 18 2 -10 2 -26 0 -35z m6740 -25 c-2 -13 -4 -5 -4 17 -1
22 1 32 4 23 2 -10 2 -28 0 -40z m-239 -8 l3 -46 -121 -88 c-66 -48 -120 -90
-120 -93 0 -6 143 3 218 13 l42 6 0 -46 c0 -25 -1 -46 -2 -46 -2 0 -97 -9
-213 -19 -115 -11 -212 -18 -214 -16 -2 2 -6 24 -8 47 l-5 44 108 79 c157 116
152 107 54 100 -47 -3 -106 -9 -132 -12 l-48 -6 0 47 c0 37 3 46 18 47 9 0
100 9 202 19 102 9 192 17 200 16 10 -1 16 -15 18 -46z m-6098 -40 c0 -43 -3
-50 -19 -50 -28 0 -51 -38 -51 -81 0 -40 18 -63 43 -54 8 4 31 46 51 94 20 49
45 96 55 105 48 44 134 38 185 -14 30 -29 31 -33 31 -119 0 -75 -3 -94 -21
-117 -30 -41 -65 -64 -107 -71 l-37 -6 0 47 c0 40 3 46 25 52 56 14 83 93 49
142 -34 48 -67 22 -99 -78 -11 -34 -32 -69 -55 -92 -31 -32 -45 -38 -79 -38
-33 0 -49 7 -79 34 l-37 35 0 83 c0 64 4 90 18 111 22 34 74 67 105 67 20 0
22 -5 22 -50z m-413 -22 c-2 -13 -4 -5 -4 17 -1 22 1 32 4 23 2 -10 2 -28 0
-40z m6760 -45 c-2 -16 -4 -3 -4 27 0 30 2 43 4 28 2 -16 2 -40 0 -55z m-6772
-271 c0 -226 0 -236 -8 -122 -7 97 -2 370 7 370 0 0 1 -111 1 -248z m6782 -84
c-1 -57 -3 -11 -3 102 0 113 2 159 3 103 2 -57 2 -149 0 -205z m-10 -205 c-2
-16 -4 -3 -4 27 0 30 2 43 4 28 2 -16 2 -40 0 -55z m-6760 -40 c-2 -16 -4 -5
-4 22 0 28 2 40 4 28 2 -13 2 -35 0 -50z m6750 -55 c-2 -13 -4 -5 -4 17 -1 22
1 32 4 23 2 -10 2 -28 0 -40z m-6740 -30 c-2 -13 -4 -5 -4 17 -1 22 1 32 4 23
2 -10 2 -28 0 -40z m6730 -45 c-3 -10 -5 -2 -5 17 0 19 2 27 5 18 2 -10 2 -26
0 -35z m-302 -4 c33 -12 86 -40 118 -62 46 -32 57 -45 57 -68 0 -15 -3 -30 -8
-33 -4 -2 -32 11 -62 30 -62 39 -149 69 -231 79 -52 6 -173 -6 -214 -21 -14
-6 -16 -1 -13 22 8 75 211 106 353 53z m-6418 -26 c-3 -10 -5 -2 -5 17 0 19 2
27 5 18 2 -10 2 -26 0 -35z m6710 -40 c-3 -10 -5 -4 -5 12 0 17 2 24 5 18 2
-7 2 -21 0 -30z m-6700 -20 c-3 -10 -5 -4 -5 12 0 17 2 24 5 18 2 -7 2 -21 0
-30z m6167 -105 c91 -101 94 -103 220 -134 26 -6 28 -10 22 -42 -3 -19 -9 -39
-14 -44 -5 -5 -44 1 -89 13 l-80 21 -127 -37 c-70 -20 -130 -35 -133 -32 -3 3
1 25 8 49 14 42 15 43 93 65 43 12 81 25 84 27 2 3 -22 33 -55 68 -65 68 -62
58 -37 136 6 21 14 14 108 -90z m505 -23 c-12 -58 -24 -104 -26 -102 -2 3 6
55 19 116 13 61 24 107 26 101 2 -5 -6 -57 -19 -115z m-6662 73 c-3 -7 -5 -2
-5 12 0 14 2 19 5 13 2 -7 2 -19 0 -25z m638 -10 c30 -11 41 -21 43 -39 l3
-24 -138 0 c-156 0 -199 -12 -313 -86 -34 -22 -64 -39 -65 -37 -2 2 -6 15 -10
29 -5 22 0 32 37 63 46 41 119 81 183 103 50 16 204 11 260 -9z m-617 -83 c0
-16 -2 -15 -8 5 -4 14 -8 36 -8 50 0 22 1 22 8 -5 4 -16 8 -39 8 -50z m58
-218 c121 -424 334 -832 620 -1192 113 -141 368 -396 509 -509 373 -297 788
-510 1236 -635 79 -22 136 -40 127 -40 -35 -2 -331 90 -470 144 -292 116 -625
305 -858 489 -515 406 -901 946 -1116 1561 -41 116 -104 341 -103 364 1 9 6
-2 11 -24 6 -22 26 -93 44 -158z m643 90 c17 -50 31 -110 31 -132 0 -72 -59
-138 -153 -169 -104 -35 -186 -10 -228 70 -33 61 -73 183 -64 192 6 6 359 129
377 131 3 1 20 -41 37 -92z m5908 11 c-3 -8 -6 -5 -6 6 -1 11 2 17 5 13 3 -3
4 -12 1 -19z m-12 -50 c-15 -65 -86 -278 -131 -389 -60 -149 -187 -397 -270
-529 -372 -592 -921 -1060 -1559 -1330 -113 -48 -402 -145 -455 -154 l-35 -5
35 11 c333 105 420 138 615 233 484 236 901 582 1230 1020 238 317 424 684
532 1048 36 122 52 163 38 95z m-604 -84 c5 -3 -2 -29 -15 -59 l-24 -53 149
-68 c82 -37 149 -71 149 -75 0 -3 -7 -23 -15 -42 -17 -42 3 -47 -200 47 l-120
55 -23 -52 c-13 -29 -25 -53 -27 -55 -5 -6 -65 28 -65 37 0 4 15 41 34 82 19
41 48 104 64 141 30 66 31 68 58 58 15 -6 31 -13 35 -16z m-490 -147 c-130
-249 -272 -441 -467 -633 -377 -371 -876 -618 -1396 -689 -60 -8 -61 1 -14 99
62 128 142 205 372 359 240 160 1536 958 1543 951 3 -2 -15 -41 -38 -87z
m-4637 -139 l67 -127 -31 -16 c-17 -9 -35 -13 -41 -10 -5 4 -28 43 -50 88 -23
45 -43 84 -45 86 -2 3 -20 -3 -39 -12 l-35 -17 42 -82 c24 -46 44 -86 46 -90
3 -6 -49 -38 -62 -38 -3 0 -24 37 -47 83 -23 45 -43 83 -44 85 -4 5 -85 -37
-85 -43 0 -3 20 -46 45 -95 25 -49 45 -94 45 -99 0 -9 -58 -36 -65 -30 -10 11
-135 257 -135 267 0 14 352 193 361 184 4 -4 36 -64 73 -134z m5085 -124 c91
-48 170 -90 174 -94 7 -6 -13 -61 -28 -78 -3 -3 -325 158 -353 176 -11 7 -10
16 4 45 10 21 22 37 27 37 6 0 85 -39 176 -86z m-4906 -184 c42 -67 77 -124
77 -129 0 -13 -49 -43 -60 -36 -5 3 -32 43 -61 89 l-53 84 -31 -21 c-16 -11
-31 -21 -33 -22 -1 -2 21 -40 50 -85 l52 -82 -23 -19 c-13 -11 -28 -19 -35
-19 -6 0 -31 33 -56 72 -25 40 -48 76 -51 81 -9 13 -90 -43 -82 -57 4 -6 31
-48 60 -93 l52 -82 -31 -22 c-30 -22 -31 -22 -45 -3 -43 58 -155 246 -150 250
14 14 323 212 332 213 6 0 45 -53 88 -119z m4746 81 c11 -7 10 -15 -8 -44 -18
-29 -29 -36 -59 -39 -31 -2 -40 -9 -57 -40 -16 -30 -17 -39 -6 -52 7 -9 17
-16 21 -16 4 0 40 27 79 60 62 51 78 60 112 60 117 0 164 -103 99 -216 -16
-29 -45 -61 -63 -73 -37 -23 -105 -28 -138 -11 -19 11 -19 11 0 48 18 35 22
37 58 34 35 -3 43 0 66 28 29 34 35 68 15 88 -22 22 -44 13 -108 -43 -75 -65
-117 -77 -170 -49 -25 14 -39 31 -49 60 -13 38 -13 46 4 90 10 27 35 66 55 87
33 33 43 37 86 37 27 0 55 -4 63 -9z m-4585 -297 l38 -46 -68 -101 c-38 -55
-71 -105 -72 -109 -2 -5 49 17 113 49 l117 58 39 -45 c21 -25 37 -49 36 -55
-2 -5 -70 -68 -151 -139 l-147 -128 -25 23 c-13 12 -24 28 -24 35 0 7 43 50
95 95 52 45 95 84 95 86 0 2 -54 -24 -120 -57 -66 -33 -123 -60 -127 -59 -5 0
-19 13 -32 30 l-23 30 36 52 c20 29 58 81 83 117 49 69 49 69 -81 -45 -82 -72
-92 -75 -123 -28 -13 20 -6 28 134 152 81 71 153 130 158 130 6 1 28 -20 49
-45z m4397 -20 c31 -29 40 -64 29 -104 l-8 -27 88 -6 c87 -7 120 -14 120 -26
0 -3 -14 -21 -31 -39 l-30 -33 -95 11 c-94 11 -96 11 -121 -12 l-25 -23 64
-57 63 -57 -31 -32 -32 -32 -151 132 c-83 73 -151 135 -151 138 0 11 141 171
163 186 49 32 102 25 148 -19z m-324 -226 c13 -12 23 -24 23 -28 0 -4 -36 -37
-80 -74 l-80 -67 22 -30 c12 -16 25 -29 28 -29 3 0 39 28 78 61 l73 62 24 -23
c14 -13 25 -27 25 -30 0 -4 -34 -36 -75 -70 l-76 -63 33 -34 c17 -18 35 -33
38 -33 4 0 41 29 82 65 42 36 80 65 84 65 13 0 44 -32 44 -45 0 -13 -215 -205
-229 -205 -10 0 -264 294 -264 305 1 7 214 195 222 195 3 0 15 -10 28 -22z
m-3743 -89 c39 -34 90 -80 114 -101 l44 -40 -23 -24 c-12 -13 -26 -24 -30 -24
-4 0 -42 30 -85 67 l-76 67 -26 -29 -25 -29 73 -67 74 -67 -17 -26 c-10 -14
-23 -26 -29 -26 -6 0 -42 28 -80 61 l-69 62 -35 -34 -35 -34 82 -76 83 -76
-17 -27 c-10 -14 -22 -26 -27 -26 -17 0 -231 193 -228 205 3 12 248 303 257
304 1 1 35 -27 75 -60z m3536 -304 c24 -104 45 -195 47 -202 3 -6 -14 -24 -36
-38 l-40 -27 -166 127 c-91 70 -167 131 -170 135 -3 4 13 19 34 33 l38 25 112
-90 c62 -49 115 -88 118 -85 2 3 -12 67 -32 142 -20 75 -35 138 -33 140 18 17
74 43 79 37 3 -4 25 -92 49 -197z m-3149 8 c29 -34 31 -40 27 -104 -3 -60 -8
-75 -43 -126 -81 -116 -159 -130 -287 -50 -123 77 -119 56 -35 187 40 63 90
141 110 172 l37 58 79 -51 c44 -28 94 -67 112 -86z m2843 -185 c47 -90 88
-170 91 -179 9 -24 -63 -68 -76 -48 -14 21 -179 347 -179 353 0 7 52 35 67 36
6 0 50 -73 97 -162z m-147 -108 c40 -101 71 -185 70 -186 -1 -1 -19 -9 -40
-18 l-38 -15 -115 84 c-63 47 -114 81 -114 77 0 -5 18 -55 40 -112 43 -109 43
-113 -8 -126 -13 -4 -27 -3 -31 2 -9 11 -141 349 -141 362 0 5 17 17 37 25
l37 14 118 -89 c65 -49 118 -86 118 -83 0 3 -20 55 -45 117 -25 61 -44 112
-42 113 27 14 55 23 67 22 9 -1 42 -73 87 -187z m-2307 118 c69 -27 128 -53
131 -56 4 -4 0 -22 -7 -39 l-14 -33 -52 21 c-28 11 -55 16 -59 12 -4 -4 -31
-69 -59 -143 -29 -74 -56 -139 -60 -144 -11 -11 -80 12 -80 27 0 6 25 75 56
154 30 78 53 146 50 151 -3 5 -23 15 -46 22 -51 17 -55 24 -40 61 15 35 4 37
180 -33z m1893 -195 c50 -177 52 -194 32 -236 -26 -56 -94 -89 -181 -89 -92 0
-112 31 -183 290 l-20 73 22 8 c68 25 60 34 103 -116 21 -76 47 -146 56 -155
44 -44 135 1 122 59 -5 23 -49 183 -70 255 -4 13 4 20 28 27 18 5 38 10 44 10
6 1 27 -56 47 -126z m-1536 86 c43 -13 99 -78 113 -131 15 -54 0 -134 -35
-195 -79 -133 -307 -101 -355 51 -25 78 13 204 77 253 53 40 115 47 200 22z
m536 -85 c106 -13 150 -110 81 -179 -16 -15 -16 -19 -3 -29 25 -17 39 -52 39
-90 0 -27 -9 -46 -33 -73 -34 -36 -34 -36 -113 -35 -43 1 -107 4 -141 8 -57 6
-63 8 -63 30 0 28 18 259 26 333 l6 53 76 -6 c43 -4 99 -9 125 -12z m482 -15
c5 -20 3 -34 -5 -39 -6 -4 -55 -10 -107 -13 -53 -4 -98 -9 -100 -11 -2 -2 -1
-20 2 -40 l7 -36 99 7 99 6 0 -35 c0 -32 -3 -36 -31 -42 -17 -3 -52 -6 -78 -6
-81 0 -86 -4 -83 -61 4 -49 4 -50 35 -45 18 3 69 8 115 11 l82 6 0 -39 0 -39
-152 -11 c-83 -7 -154 -10 -156 -7 -8 7 -36 394 -30 400 6 6 167 22 245 24 50
1 52 0 58 -30z m452 -505 c-3 -3 -12 -4 -19 -1 -8 3 -5 6 6 6 11 1 17 -2 13
-5z m-57 -14 c-14 -4 -34 -8 -45 -8 -16 0 -15 2 5 8 14 4 34 8 45 8 16 0 15
-2 -5 -8z m-1395 -21 c55 -11 70 -17 40 -14 -53 6 -170 32 -145 33 8 1 56 -8
105 -19z m1318 4 c-7 -2 -19 -2 -25 0 -7 3 -2 5 12 5 14 0 19 -2 13 -5z m-50
-10 c-7 -2 -19 -2 -25 0 -7 3 -2 5 12 5 14 0 19 -2 13 -5z m-50 -10 c-7 -2
-21 -2 -30 0 -10 3 -4 5 12 5 17 0 24 -2 18 -5z m-1080 -10 c-7 -2 -21 -2 -30
0 -10 3 -4 5 12 5 17 0 24 -2 18 -5z m1015 0 c-10 -2 -26 -2 -35 0 -10 3 -2 5
17 5 19 0 27 -2 18 -5z m-940 -10 c-10 -2 -28 -2 -40 0 -13 2 -5 4 17 4 22 1
32 -1 23 -4z m870 0 c-10 -2 -26 -2 -35 0 -10 3 -2 5 17 5 19 0 27 -2 18 -5z
m-785 -10 c-13 -2 -33 -2 -45 0 -13 2 -3 4 22 4 25 0 35 -2 23 -4z m705 0
c-10 -2 -28 -2 -40 0 -13 2 -5 4 17 4 22 1 32 -1 23 -4z m-148 -14 c-36 -4
-139 -7 -230 -7 -91 0 -194 3 -230 7 -36 3 68 6 230 6 162 0 266 -3 230 -6z
m-3068 -509 c87 -25 185 -125 200 -205 5 -24 4 -25 -51 -25 l-56 1 -30 52
c-24 41 -42 57 -86 80 -47 24 -64 28 -98 22 -75 -12 -139 -74 -161 -154 -13
-48 -13 -331 1 -385 13 -51 58 -110 102 -132 91 -47 215 4 257 106 12 29 15
30 71 30 l58 0 -9 -31 c-37 -127 -154 -209 -300 -209 -121 0 -219 57 -270 156
-24 47 -25 58 -28 253 -4 250 5 289 83 367 30 31 68 57 95 67 52 18 168 22
222 7z m789 -6 c65 -19 139 -60 139 -77 0 -11 -46 -67 -55 -67 -2 0 -34 15
-72 34 -87 44 -145 53 -215 32 -95 -27 -146 -113 -114 -190 20 -48 48 -63 167
-91 170 -41 208 -55 249 -91 51 -47 63 -79 58 -167 -4 -98 -35 -144 -122 -187
-137 -68 -375 -45 -494 48 l-24 18 27 32 c32 38 49 40 95 9 61 -42 129 -62
206 -61 127 1 204 58 204 152 0 86 -43 116 -224 156 -148 32 -199 56 -234 109
-23 35 -27 51 -27 111 1 126 64 204 190 236 54 14 189 11 246 -6z m2648 0 c72
-21 134 -79 162 -152 18 -47 23 -85 27 -212 7 -241 -15 -340 -93 -408 -62 -55
-98 -66 -220 -66 -101 -1 -114 2 -162 27 -66 34 -118 101 -133 170 -8 33 -11
127 -8 257 3 195 4 207 28 254 31 60 90 112 150 131 61 19 185 18 249 -1z
m1683 6 c87 -25 185 -125 200 -205 5 -24 4 -25 -51 -25 l-56 1 -30 52 c-24 41
-42 57 -86 80 -47 24 -64 28 -98 22 -75 -12 -139 -74 -161 -154 -13 -48 -13
-331 1 -385 13 -51 58 -110 102 -132 91 -47 215 4 257 106 12 29 15 30 71 30
l58 0 -9 -31 c-37 -127 -154 -209 -300 -209 -121 0 -219 57 -270 156 -24 47
-25 58 -28 253 -4 250 5 289 83 367 30 31 68 57 95 67 52 18 168 22 222 7z
m-3442 -40 l0 -40 -225 0 -225 0 0 -150 0 -150 195 0 195 0 0 -40 0 -40 -195
0 -195 0 0 -150 0 -150 225 0 225 0 0 -40 0 -40 -285 0 -285 0 0 420 0 420
285 0 285 0 0 -40z m805 -267 c109 -170 204 -315 211 -323 12 -12 14 35 14
308 l0 322 55 0 55 0 0 -420 0 -420 -58 0 c-55 0 -59 2 -77 33 -10 17 -84 131
-163 252 -80 121 -163 249 -186 285 l-41 65 -3 -317 -2 -318 -60 0 -60 0 0
420 0 420 59 0 59 0 197 -307z m1825 267 l0 -40 -125 0 -125 0 0 -380 0 -380
-60 0 -60 0 0 380 0 380 -125 0 -125 0 0 40 0 40 310 0 310 0 0 -40z m210
-380 l0 -420 -55 0 -55 0 0 420 0 420 55 0 55 0 0 -420z m1530 380 l0 -40
-225 0 -225 0 0 -150 0 -150 195 0 195 0 0 -40 0 -40 -195 0 -195 0 0 -150 0
-150 225 0 225 0 0 -40 0 -40 -285 0 -285 0 0 420 0 420 285 0 285 0 0 -40z"/>
<path d="M4765 8915 c-9 -36 -15 -68 -12 -71 3 -3 25 -4 49 -2 l44 3 -31 68
-32 68 -18 -66z"/>
<path d="M3853 8770 c-103 -62 -10 -279 110 -256 49 9 87 55 87 107 0 48 -34
123 -68 149 -32 26 -88 26 -129 0z"/>
<path d="M6732 8424 c-29 -19 -52 -38 -52 -43 0 -5 17 -20 38 -34 l39 -25 16
66 c8 37 14 68 13 69 -1 1 -25 -13 -54 -33z"/>
<path d="M3093 8218 c2 -7 13 -37 23 -65 10 -29 21 -53 24 -53 4 0 21 15 39
34 l32 33 -55 32 c-61 34 -70 37 -63 19z"/>
<path d="M7423 7716 l-112 -82 45 -52 c26 -29 54 -52 65 -52 62 0 179 95 179
145 0 21 -54 127 -64 125 0 -1 -51 -38 -113 -84z"/>
<path d="M7863 6723 c3 -10 8 -33 12 -50 l7 -33 60 41 c33 22 58 42 56 44 -2
1 -34 6 -71 10 -64 6 -69 5 -64 -12z"/>
<path d="M2251 5079 c-63 -21 -115 -40 -117 -42 -10 -10 31 -100 52 -114 31
-20 87 -13 150 17 59 29 72 56 55 118 -7 26 -15 50 -19 53 -4 4 -58 -11 -121
-32z"/>
<path d="M7191 4081 l-41 -50 36 -28 37 -27 38 44 c40 46 48 77 27 98 -24 24
-54 13 -97 -37z"/>
<path d="M3444 3484 c-74 -116 -74 -107 0 -145 23 -12 48 -18 61 -15 47 12
122 136 111 183 -6 21 -78 83 -97 83 -4 0 -38 -48 -75 -106z"/>
<path d="M4275 3197 c-35 -30 -57 -112 -44 -161 17 -63 93 -96 150 -66 47 26
78 150 50 203 -27 50 -111 63 -156 24z"/>
<path d="M4830 3096 l0 -46 63 0 c65 0 87 11 87 42 0 23 -23 34 -92 42 l-58 7
0 -45z"/>
<path d="M4820 2947 c0 -20 -3 -42 -6 -50 -4 -11 8 -16 58 -21 35 -4 71 -4 80
-1 35 13 34 79 0 89 -9 2 -43 7 -74 11 l-58 6 0 -34z"/>
<path d="M5475 1998 c-49 -18 -84 -47 -108 -91 -21 -40 -22 -54 -22 -247 0
-200 1 -206 25 -250 80 -142 306 -118 349 37 14 50 14 377 0 428 -27 97 -147
157 -244 123z"/>
</g>
</svg>
